<svg width="80" height="80" viewBox="0 0 80 80" fill="none" xmlns="http://www.w3.org/2000/svg">
<path fill-rule="evenodd" clip-rule="evenodd" d="M40 77C60.4345 77 77 60.4345 77 40C77 19.5655 60.4345 3 40 3C19.5655 3 3 19.5655 3 40C3 60.4345 19.5655 77 40 77ZM40 80C62.0914 80 80 62.0914 80 40C80 17.9086 62.0914 0 40 0C17.9086 0 0 17.9086 0 40C0 62.0914 17.9086 80 40 80Z" fill="#FDFDFD"/>
<path fill-rule="evenodd" clip-rule="evenodd" d="M50.6066 51.5147L41.0606 61.0607C40.4749 61.6464 39.5251 61.6464 38.9393 61.0607L29.3934 51.5147C28.8076 50.9289 28.8076 49.9792 29.3934 49.3934C29.9792 48.8076 30.9289 48.8076 31.5147 49.3934L38.5 56.3787V20H41.5V56.3787L48.4853 49.3934C49.0711 48.8076 50.0208 48.8076 50.6066 49.3934C51.1924 49.9792 51.1924 50.9289 50.6066 51.5147Z" fill="#FDFDFD"/>
</svg>
