<?xml version="1.0" encoding="iso-8859-1"?>
<!-- Uploaded to: SVG Repo, www.svgrepo.com, Generator: SVG Repo Mixer Tools -->
<svg fill="#000000" version="1.1" id="Layer_1" xmlns="http://www.w3.org/2000/svg" xmlns:xlink="http://www.w3.org/1999/xlink" 
	 viewBox="0 0 512 512" xml:space="preserve">
<g>
	<g>
		<path d="M511.911,341.549l-28.981-212.482c-0.661-4.783-4.745-8.311-9.576-8.311H38.645c-4.83,0-8.915,3.528-9.575,8.311
			L0.089,341.571c-0.378,2.764,0.462,5.59,2.302,7.693c1.83,2.099,4.481,3.338,7.273,3.338h492.672c2.793,0,5.443-1.25,7.274-3.35
			C511.449,347.15,512.289,344.314,511.911,341.549z M20.73,333.282l26.349-193.205h417.843l26.349,193.205H20.73z"/>
	</g>
</g>
<g>
	<g>
		<rect x="10.783" y="371.923" width="492.672" height="19.32"/>
	</g>
</g>
<g>
	<g>
		<path d="M425.054,227.019h-56.841v-58.047c0-5.335-5.441-9.574-10.781-9.574h-67.622c-5.339,0-8.54,4.239-8.54,9.574v58.047
			H232.97v-58.047c0-5.335-5.441-9.574-10.781-9.574h-67.622c-5.339,0-8.54,4.239-8.54,9.574v58.047H86.946
			c-5.339,0-8.54,4.239-8.54,9.574v67.622c0,5.335,3.2,9.746,8.54,9.746h67.622c5.34,0,10.781-4.412,10.781-9.746V246.34h48.301
			v57.875c0,5.335,3.2,9.746,8.54,9.746h67.622c5.34,0,10.781-4.412,10.781-9.746V246.34h48.301v57.875
			c0,5.335,3.2,9.746,8.54,9.746h67.622c5.34,0,10.781-4.412,10.781-9.746v-67.622C435.835,231.259,430.394,227.019,425.054,227.019
			z M146.028,294.641H97.726V246.34h48.301V294.641z M213.649,227.019h-48.301v-48.301h48.301V227.019z M281.271,294.641H232.97
			V246.34h48.301V294.641z M348.892,227.019h-48.301v-48.301h48.301V227.019z M416.514,294.641h-48.301V246.34h48.301V294.641z"/>
	</g>
</g>
</svg>