<svg width="124" height="63" viewBox="0 0 124 63" fill="none" xmlns="http://www.w3.org/2000/svg">
<path d="M9.72231 12.318L11.3063 12.384C12.9563 12.384 14.4743 12.12 15.8603 11.592C16.6743 11.284 17.3233 10.8 17.8073 10.14C18.3133 9.48001 18.5663 8.66601 18.5663 7.69801C18.5663 4.22201 16.4763 2.48401 12.2963 2.48401L8.86431 2.61601V21.624C8.86431 21.932 8.88631 22.174 8.93031 22.35C8.97431 22.526 9.11731 22.691 9.35931 22.845C9.60131 22.999 9.96431 23.076 10.4483 23.076H11.7023V24H3.32031V23.076H4.37631C4.86031 23.076 5.22331 22.999 5.46531 22.845C5.70731 22.691 5.85031 22.526 5.89431 22.35C5.93831 22.174 5.96031 21.932 5.96031 21.624V3.34201C5.96031 2.83601 5.85031 2.47301 5.63031 2.25301C5.43231 2.01101 5.01431 1.89001 4.37631 1.89001H3.32031V0.900007H8.40231L14.6723 0.570007C16.6523 0.570007 18.2473 0.999008 19.4573 1.85701C20.6673 2.71501 21.2723 3.92501 21.2723 5.48701C21.2723 7.02701 20.9093 8.38001 20.1833 9.54601C19.4793 10.69 18.5993 11.548 17.5433 12.12C15.5413 13.176 13.7483 13.704 12.1643 13.704C11.2403 13.704 10.5143 13.682 9.98631 13.638L9.72231 12.318Z" fill="black"/>
<path d="M30.4963 24H23.3683V23.076H23.8963C24.4903 23.076 24.8643 22.977 25.0183 22.779C25.1943 22.581 25.2823 22.262 25.2823 21.822V11.922C25.2823 11.504 25.1393 11.207 24.8533 11.031C24.5893 10.833 24.0943 10.734 23.3683 10.734V9.81001C23.8083 9.81001 24.4683 9.65601 25.3483 9.34801C26.2503 9.01801 26.9323 8.71001 27.3943 8.42401L27.9883 8.29201V12.384C28.7803 10.646 29.6823 9.50201 30.6943 8.95201C31.7063 8.38001 33.2023 8.09401 35.1823 8.09401L34.9843 11.922H33.9943C33.9943 11.614 33.8733 11.317 33.6313 11.031C33.4113 10.745 33.0483 10.602 32.5423 10.602C31.4423 10.602 30.4083 11.196 29.4403 12.384C28.4723 13.572 27.9883 14.716 27.9883 15.816V21.624C27.9883 21.976 27.9993 22.229 28.0213 22.383C28.0653 22.537 28.1973 22.691 28.4173 22.845C28.6373 22.999 28.9783 23.076 29.4403 23.076H30.4963V24Z" fill="black"/>
<path d="M49.3161 19.974L49.9101 20.568C48.5021 23.164 45.9721 24.462 42.3201 24.462C40.6261 24.462 39.1741 23.714 37.9641 22.218C36.7761 20.722 36.1821 19.05 36.1821 17.202C36.1821 14.716 36.9851 12.593 38.5911 10.833C40.2191 9.05101 42.1881 8.16001 44.4981 8.16001C45.5981 8.16001 46.5661 8.47901 47.4021 9.11701C48.8981 10.283 49.6461 11.79 49.6461 13.638C49.6461 13.902 49.5911 14.221 49.4811 14.595C49.3931 14.969 49.3161 15.156 49.2501 15.156L38.6241 15.486C38.6241 17.202 39.1631 18.786 40.2411 20.238C41.3191 21.69 42.6281 22.416 44.1681 22.416C45.2681 22.416 46.2801 22.196 47.2041 21.756C48.1501 21.294 48.8541 20.7 49.3161 19.974ZM38.9541 14.166L46.6761 13.836C46.7201 13.836 46.7421 13.638 46.7421 13.242C46.7421 12.098 46.4011 11.284 45.7191 10.8C45.0591 10.316 44.1351 10.074 42.9471 10.074C41.7811 10.074 40.8241 10.437 40.0761 11.163C39.3281 11.889 38.9541 12.89 38.9541 14.166Z" fill="black"/>
<path d="M52.63 23.076L52.96 19.512L53.884 19.578C53.884 20.326 54.368 21.041 55.336 21.723C56.304 22.405 57.349 22.746 58.471 22.746C60.781 22.746 61.936 22.042 61.936 20.634C61.936 19.93 61.639 19.303 61.045 18.753C60.451 18.203 59.736 17.752 58.9 17.4C58.064 17.026 57.228 16.652 56.392 16.278C55.556 15.882 54.841 15.376 54.247 14.76C53.653 14.122 53.356 13.396 53.356 12.582C53.356 9.72201 55.468 8.29201 59.692 8.29201C60.638 8.29201 61.672 8.55601 62.794 9.08401L62.596 12.384H61.804C61.804 11.768 61.441 11.174 60.715 10.602C60.011 10.03 59.241 9.74401 58.405 9.74401C57.569 9.74401 56.854 9.90901 56.26 10.239C55.688 10.569 55.402 11.064 55.402 11.724C55.402 12.362 55.699 12.89 56.293 13.308C56.887 13.726 57.602 14.067 58.438 14.331C59.274 14.595 60.11 14.892 60.946 15.222C61.782 15.552 62.497 16.091 63.091 16.839C63.685 17.587 63.982 18.522 63.982 19.644C63.982 20.766 63.619 21.701 62.893 22.449C61.595 23.791 59.714 24.462 57.25 24.462C55.336 24.462 53.796 24 52.63 23.076Z" fill="black"/>
<path d="M76.1157 21.954L76.3797 22.746C74.7297 23.89 72.9257 24.462 70.9677 24.462C70.2637 24.462 69.6587 24.209 69.1527 23.703C68.6467 23.197 68.3937 22.526 68.3937 21.69V10.008H66.4797V8.62201H67.2057C67.9317 8.62201 68.6027 8.18201 69.2187 7.30201C69.8567 6.42201 70.1757 5.60801 70.1757 4.86001H71.0337V8.62201H75.5217V10.008H72.2877C71.4517 10.008 71.0337 10.404 71.0337 11.196V20.634C71.0337 22.086 71.5617 22.812 72.6177 22.812C73.8057 22.812 74.9717 22.526 76.1157 21.954Z" fill="black"/>
<path d="M80.9961 1.03201C81.5021 1.03201 81.8871 1.19701 82.1511 1.52701C82.4371 1.85701 82.5801 2.28601 82.5801 2.81401C82.5801 3.32001 82.3711 3.74901 81.9531 4.10101C81.5351 4.43101 81.0731 4.59601 80.5671 4.59601C80.0831 4.59601 79.6981 4.43101 79.4121 4.10101C79.1481 3.77101 79.0161 3.36401 79.0161 2.88001C79.0161 2.37401 79.2251 1.94501 79.6431 1.59301C80.0611 1.21901 80.5121 1.03201 80.9961 1.03201ZM84.6261 24H77.9601V23.076H78.4881C79.0821 23.076 79.4561 22.977 79.6101 22.779C79.7861 22.581 79.8741 22.262 79.8741 21.822V11.922C79.8741 11.504 79.7311 11.207 79.4451 11.031C79.1811 10.833 78.6861 10.734 77.9601 10.734V9.81001C78.4001 9.81001 79.0601 9.65601 79.9401 9.34801C80.8421 9.01801 81.5241 8.71001 81.9861 8.42401L82.5801 8.29201V21.624C82.5801 21.976 82.5911 22.229 82.6131 22.383C82.6571 22.537 82.7891 22.691 83.0091 22.845C83.2291 22.999 83.5701 23.076 84.0321 23.076H84.6261V24Z" fill="black"/>
<path d="M91.7325 22.284L95.0325 22.152C97.5405 22.152 99.2785 22.427 100.246 22.977C101.214 23.505 101.698 24.363 101.698 25.551C101.698 26.739 101.357 27.773 100.675 28.653C99.9935 29.533 99.1025 30.226 98.0025 30.732C95.8245 31.7 93.4925 32.184 91.0065 32.184C89.5545 32.184 88.3775 31.832 87.4755 31.128C86.5735 30.446 86.1225 29.588 86.1225 28.554C86.1225 26.134 87.1565 24.572 89.2245 23.868C88.7185 23.868 88.3005 23.758 87.9705 23.538C87.6625 23.318 87.5085 23.076 87.5085 22.812C87.5085 22.526 87.5525 22.251 87.6405 21.987C87.7285 21.723 87.8715 21.459 88.0695 21.195C88.2675 20.909 88.4325 20.689 88.5645 20.535C88.7185 20.359 88.9605 20.106 89.2905 19.776L89.9505 19.116C88.7625 18.06 88.1685 16.63 88.1685 14.826C88.1685 13 88.8505 11.427 90.2145 10.107C91.5785 8.76501 93.0745 8.09401 94.7025 8.09401C95.7145 8.09401 96.6165 8.38001 97.4085 8.95201C98.3325 7.89601 99.8725 7.36801 102.028 7.36801L101.698 10.206C101.566 10.008 101.335 9.82101 101.005 9.64501C100.675 9.44701 100.422 9.34801 100.246 9.34801C99.6525 9.34801 99.0365 9.54601 98.3985 9.94201C99.2345 10.91 99.6525 12.076 99.6525 13.44C99.6525 15.156 98.9925 16.685 97.6725 18.027C96.3525 19.369 94.8565 20.04 93.1845 20.04C92.3265 20.04 91.6225 19.886 91.0725 19.578C90.1485 20.678 89.6865 21.36 89.6865 21.624C89.6865 22.064 90.3685 22.284 91.7325 22.284ZM93.3825 23.934H91.0725C90.3905 24.352 89.9395 24.671 89.7195 24.891C89.4995 25.111 89.3125 25.32 89.1585 25.518C89.0045 25.716 88.8725 25.914 88.7625 26.112C88.5425 26.574 88.4325 27.091 88.4325 27.663C88.4325 28.235 88.6965 28.73 89.2245 29.148C90.1265 29.808 91.3805 30.138 92.9865 30.138C94.6145 30.138 96.1215 29.863 97.5075 29.313C98.8935 28.763 99.5865 28.004 99.5865 27.036C99.5865 26.068 99.0255 25.309 97.9035 24.759C96.7815 24.209 95.2745 23.934 93.3825 23.934ZM90.2805 13.671C90.2805 14.837 90.6875 15.871 91.5015 16.773C92.3375 17.675 93.2725 18.126 94.3065 18.126C95.3405 18.126 96.1325 17.807 96.6825 17.169C97.2545 16.509 97.5405 15.64 97.5405 14.562C97.5405 13.462 97.1335 12.428 96.3195 11.46C95.5275 10.492 94.5925 10.008 93.5145 10.008C92.4365 10.008 91.6225 10.327 91.0725 10.965C90.5445 11.581 90.2805 12.483 90.2805 13.671Z" fill="black"/>
<path d="M116.347 19.974L116.941 20.568C115.533 23.164 113.003 24.462 109.351 24.462C107.657 24.462 106.205 23.714 104.995 22.218C103.807 20.722 103.213 19.05 103.213 17.202C103.213 14.716 104.016 12.593 105.622 10.833C107.25 9.05101 109.219 8.16001 111.529 8.16001C112.629 8.16001 113.597 8.47901 114.433 9.11701C115.929 10.283 116.677 11.79 116.677 13.638C116.677 13.902 116.622 14.221 116.512 14.595C116.424 14.969 116.347 15.156 116.281 15.156L105.655 15.486C105.655 17.202 106.194 18.786 107.272 20.238C108.35 21.69 109.659 22.416 111.199 22.416C112.299 22.416 113.311 22.196 114.235 21.756C115.181 21.294 115.885 20.7 116.347 19.974ZM105.985 14.166L113.707 13.836C113.751 13.836 113.773 13.638 113.773 13.242C113.773 12.098 113.432 11.284 112.75 10.8C112.09 10.316 111.166 10.074 109.978 10.074C108.812 10.074 107.855 10.437 107.107 11.163C106.359 11.889 105.985 12.89 105.985 14.166Z" fill="black"/>
<path d="M12.0001 32L14.6942 40.2918H23.4128L16.3593 45.4164L19.0535 53.7082L12.0001 48.5836L4.94666 53.7082L7.64082 45.4164L0.587402 40.2918H9.30591L12.0001 32Z" fill="black"/>
<path d="M36.0001 36L38.6942 44.2918H47.4128L40.3593 49.4164L43.0535 57.7082L36.0001 52.5836L28.9467 57.7082L31.6408 49.4164L24.5874 44.2918H33.3059L36.0001 36Z" fill="black"/>
<path d="M111.5 31L114.306 39.6373H123.388L116.041 44.9754L118.847 53.6127L111.5 48.2746L104.153 53.6127L106.959 44.9754L99.6118 39.6373H108.694L111.5 31Z" fill="black"/>
<path d="M86.5 35L89.3064 43.6373H98.3882L91.0409 48.9754L93.8473 57.6127L86.5 52.2746L79.1527 57.6127L81.9591 48.9754L74.6118 43.6373H83.6936L86.5 35Z" fill="black"/>
<path d="M61 39L63.9186 47.9828H73.3637L65.7225 53.5344L68.6412 62.5172L61 56.9656L53.3588 62.5172L56.2774 53.5344L48.6362 47.9828H58.0813L61 39Z" fill="black"/>
</svg>
